<?xml version="1.0" encoding="UTF-8"?><svg xmlns="http://www.w3.org/2000/svg" xmlns:xlink="http://www.w3.org/1999/xlink" fill-opacity="1" color-rendering="auto" color-interpolation="auto" text-rendering="auto" stroke="black" stroke-linecap="square" width="1905" stroke-miterlimit="10" shape-rendering="auto" stroke-opacity="1" fill="black" stroke-dasharray="none" font-weight="normal" stroke-width="1" height="947" font-family="'Dialog'" font-style="normal" stroke-linejoin="miter" font-size="12px" stroke-dashoffset="0" image-rendering="auto">
  <!--Generated by ySVG 2.5-->
  <defs id="genericDefs"/>
  <g>
    <defs id="defs1">
      <linearGradient x1="159.7" gradientUnits="userSpaceOnUse" x2="250.9" y1="0" y2="46" id="linearGradient1" spreadMethod="reflect">
        <stop stop-opacity="1" stop-color="rgb(232,238,247)" offset="0%"/>
        <stop stop-opacity="1" stop-color="rgb(183,201,227)" offset="100%"/>
      </linearGradient>
      <clipPath clipPathUnits="userSpaceOnUse" id="clipPath1">
        <path d="M0 0 L1905 0 L1905 947 L0 947 L0 0 Z"/>
      </clipPath>
      <clipPath clipPathUnits="userSpaceOnUse" id="clipPath2">
        <path d="M-15 -15 L1890 -15 L1890 932 L-15 932 L-15 -15 Z"/>
      </clipPath>
      <clipPath clipPathUnits="userSpaceOnUse" id="clipPath3">
        <path d="M-19 -19 L1886 -19 L1886 928 L-19 928 L-19 -19 Z"/>
      </clipPath>
      <clipPath clipPathUnits="userSpaceOnUse" id="clipPath4">
        <path d="M1623 450 L1623 478 L1846 478 L1846 450 Z"/>
      </clipPath>
      <clipPath clipPathUnits="userSpaceOnUse" id="clipPath5">
        <path d="M1570 310 L1570 338 L1793 338 L1793 310 Z"/>
      </clipPath>
      <clipPath clipPathUnits="userSpaceOnUse" id="clipPath6">
        <path d="M1570 212 L1570 240 L1793 240 L1793 212 Z"/>
      </clipPath>
      <clipPath clipPathUnits="userSpaceOnUse" id="clipPath7">
        <path d="M650 450 L650 478 L873 478 L873 450 Z"/>
      </clipPath>
      <clipPath clipPathUnits="userSpaceOnUse" id="clipPath8">
        <path d="M231 310 L231 338 L454 338 L454 310 Z"/>
      </clipPath>
      <clipPath clipPathUnits="userSpaceOnUse" id="clipPath9">
        <path d="M54 652 L54 698 L263 698 L263 652 Z"/>
      </clipPath>
      <clipPath clipPathUnits="userSpaceOnUse" id="clipPath10">
        <path d="M109 841 L109 869 L307 869 L307 841 Z"/>
      </clipPath>
      <clipPath clipPathUnits="userSpaceOnUse" id="clipPath11">
        <path d="M842 718 L842 746 L1065 746 L1065 718 Z"/>
      </clipPath>
    </defs>
    <g fill="white" text-rendering="geometricPrecision" shape-rendering="geometricPrecision" transform="translate(15,15)" stroke="white">
      <rect x="-15" width="1905" height="947" y="-15" clip-path="url(#clipPath2)" stroke="none"/>
    </g>
    <g fill="rgb(210,210,210)" text-rendering="geometricPrecision" shape-rendering="geometricPrecision" transform="matrix(1,0,0,1,15,15) translate(4,4)" stroke="rgb(210,210,210)">
      <rect x="0" width="1870.5" height="451.3047" y="77" clip-path="url(#clipPath3)" stroke="none"/>
    </g>
    <g fill="rgb(242,240,216)" text-rendering="geometricPrecision" shape-rendering="geometricPrecision" transform="matrix(1,0,0,1,15,15)" stroke="rgb(242,240,216)">
      <rect x="0" width="1870.5" height="451.3047" y="77" clip-path="url(#clipPath2)" stroke="none"/>
      <rect x="0" y="77" clip-path="url(#clipPath2)" fill="rgb(183,182,158)" width="1870.5" height="21.4609" stroke="none"/>
    </g>
    <g font-size="15px" stroke-linecap="butt" transform="matrix(1,0,0,1,15,15)" text-rendering="geometricPrecision" font-family="sans-serif" shape-rendering="geometricPrecision" stroke-miterlimit="1.45">
      <text x="1805.1968" xml:space="preserve" y="92.9233" clip-path="url(#clipPath2)" stroke="none">UrDriver</text>
      <rect fill="none" x="0" width="1870.5" height="451.3047" y="77" clip-path="url(#clipPath2)"/>
    </g>
    <g fill="rgb(210,210,210)" text-rendering="geometricPrecision" shape-rendering="geometricPrecision" transform="matrix(1,0,0,1,15,15) translate(4,4)" stroke="rgb(210,210,210)">
      <rect x="995" width="192" height="97.4609" y="404.8438" clip-path="url(#clipPath3)" stroke="none"/>
    </g>
    <g fill="rgb(222,220,196)" text-rendering="geometricPrecision" shape-rendering="geometricPrecision" transform="matrix(1,0,0,1,15,15)" stroke="rgb(222,220,196)">
      <rect x="995" width="192" height="97.4609" y="404.8438" clip-path="url(#clipPath2)" stroke="none"/>
      <rect x="995" y="404.8438" clip-path="url(#clipPath2)" fill="rgb(183,182,158)" width="192" height="21.4609" stroke="none"/>
    </g>
    <g font-size="15px" stroke-linecap="butt" transform="matrix(1,0,0,1,15,15)" text-rendering="geometricPrecision" font-family="sans-serif" shape-rendering="geometricPrecision" stroke-miterlimit="1.45">
      <text x="1000.1221" xml:space="preserve" y="420.7671" clip-path="url(#clipPath2)" stroke="none">comm::ReverseInterface</text>
      <rect fill="none" x="995" width="192" height="97.4609" y="404.8438" clip-path="url(#clipPath2)"/>
    </g>
    <g fill="rgb(255,204,0)" text-rendering="geometricPrecision" shape-rendering="geometricPrecision" transform="matrix(1,0,0,1,15,15)" stroke="rgb(255,204,0)">
      <rect x="1010" width="162" height="46" y="441.3047" clip-path="url(#clipPath2)" stroke="none"/>
    </g>
    <g text-rendering="geometricPrecision" stroke-miterlimit="1.45" shape-rendering="geometricPrecision" transform="matrix(1,0,0,1,15,15)" stroke-linecap="butt">
      <rect fill="none" x="1010" width="162" height="46" y="441.3047" clip-path="url(#clipPath2)"/>
      <text x="1049.5947" xml:space="preserve" y="468.459" clip-path="url(#clipPath2)" font-family="sans-serif" stroke="none">Socket:50001</text>
    </g>
    <g fill="rgb(210,210,210)" text-rendering="geometricPrecision" shape-rendering="geometricPrecision" transform="matrix(1,0,0,1,15,15) translate(4,4)" stroke="rgb(210,210,210)">
      <rect x="5" width="192" height="97.4609" y="264.8438" clip-path="url(#clipPath3)" stroke="none"/>
    </g>
    <g fill="rgb(222,220,196)" text-rendering="geometricPrecision" shape-rendering="geometricPrecision" transform="matrix(1,0,0,1,15,15)" stroke="rgb(222,220,196)">
      <rect x="5" width="192" height="97.4609" y="264.8438" clip-path="url(#clipPath2)" stroke="none"/>
      <rect x="5" y="264.8438" clip-path="url(#clipPath2)" fill="rgb(183,182,158)" width="192" height="21.4609" stroke="none"/>
    </g>
    <g font-size="15px" stroke-linecap="butt" transform="matrix(1,0,0,1,15,15)" text-rendering="geometricPrecision" font-family="sans-serif" shape-rendering="geometricPrecision" stroke-miterlimit="1.45">
      <text x="41.5649" xml:space="preserve" y="280.7671" clip-path="url(#clipPath2)" stroke="none">comm::ScriptSender</text>
      <rect fill="none" x="5" width="192" height="97.4609" y="264.8438" clip-path="url(#clipPath2)"/>
    </g>
    <g fill="rgb(255,204,0)" text-rendering="geometricPrecision" shape-rendering="geometricPrecision" transform="matrix(1,0,0,1,15,15)" stroke="rgb(255,204,0)">
      <rect x="20" width="162" height="46" y="301.3047" clip-path="url(#clipPath2)" stroke="none"/>
    </g>
    <g text-rendering="geometricPrecision" stroke-miterlimit="1.45" shape-rendering="geometricPrecision" transform="matrix(1,0,0,1,15,15)" stroke-linecap="butt">
      <rect fill="none" x="20" width="162" height="46" y="301.3047" clip-path="url(#clipPath2)"/>
      <text x="59.5947" xml:space="preserve" y="328.459" clip-path="url(#clipPath2)" font-family="sans-serif" stroke="none">Socket:50002</text>
    </g>
    <g fill="rgb(210,210,210)" text-rendering="geometricPrecision" shape-rendering="geometricPrecision" transform="matrix(1,0,0,1,15,15) translate(4,4)" stroke="rgb(210,210,210)">
      <rect x="1272" width="589.5" height="405.8438" y="103.4609" clip-path="url(#clipPath3)" stroke="none"/>
    </g>
    <g fill="rgb(222,220,196)" text-rendering="geometricPrecision" shape-rendering="geometricPrecision" transform="matrix(1,0,0,1,15,15)" stroke="rgb(222,220,196)">
      <rect x="1272" width="589.5" height="405.8438" y="103.4609" clip-path="url(#clipPath2)" stroke="none"/>
      <rect x="1272" y="103.4609" clip-path="url(#clipPath2)" fill="rgb(183,182,158)" width="589.5" height="21.4609" stroke="none"/>
    </g>
    <g font-size="15px" stroke-linecap="butt" transform="matrix(1,0,0,1,15,15)" text-rendering="geometricPrecision" font-family="sans-serif" shape-rendering="geometricPrecision" stroke-miterlimit="1.45">
      <text x="1660.1567" xml:space="preserve" y="119.3843" clip-path="url(#clipPath2)" stroke="none">rtde_interface::RTDEClient</text>
      <rect fill="none" x="1272" width="589.5" height="405.8438" y="103.4609" clip-path="url(#clipPath2)"/>
    </g>
    <g fill="rgb(255,204,0)" text-rendering="geometricPrecision" shape-rendering="geometricPrecision" transform="matrix(1,0,0,1,15,15)" stroke="rgb(255,204,0)">
      <rect x="1624" width="221" height="26" y="451" clip-path="url(#clipPath2)" stroke="none"/>
      <rect x="1623" y="450" clip-path="url(#clipPath2)" fill="yellow" width="1" height="28" stroke="none"/>
      <rect x="1624" y="450" clip-path="url(#clipPath2)" fill="yellow" width="221" height="1" stroke="none"/>
      <rect x="1624" y="477" clip-path="url(#clipPath2)" fill="rgb(178,142,0)" width="222" height="1" stroke="none"/>
      <rect x="1845" y="450" clip-path="url(#clipPath2)" fill="rgb(178,142,0)" width="1" height="27" stroke="none"/>
    </g>
    <g font-size="13px" stroke-linecap="butt" transform="matrix(1,0,0,1,15,15)" text-rendering="geometricPrecision" font-family="sans-serif" shape-rendering="geometricPrecision" font-weight="bold" stroke-miterlimit="1.45">
      <text x="1635.5259" xml:space="preserve" y="467.3716" clip-path="url(#clipPath4)" stroke="none">rtde_interface::RTDEWriter</text>
    </g>
    <g fill="rgb(210,210,210)" text-rendering="geometricPrecision" shape-rendering="geometricPrecision" transform="matrix(1,0,0,1,15,15) translate(4,4)" stroke="rgb(210,210,210)">
      <rect x="1524.5" width="318" height="232.3828" y="139.9219" clip-path="url(#clipPath3)" stroke="none"/>
    </g>
    <g fill="rgb(202,200,176)" text-rendering="geometricPrecision" shape-rendering="geometricPrecision" transform="matrix(1,0,0,1,15,15)" stroke="rgb(202,200,176)">
      <rect x="1524.5" width="318" height="232.3828" y="139.9219" clip-path="url(#clipPath2)" stroke="none"/>
      <rect x="1524.5" y="139.9219" clip-path="url(#clipPath2)" fill="rgb(183,182,158)" width="318" height="21.4609" stroke="none"/>
    </g>
    <g font-size="15px" stroke-linecap="butt" transform="matrix(1,0,0,1,15,15)" text-rendering="geometricPrecision" font-family="sans-serif" shape-rendering="geometricPrecision" stroke-miterlimit="1.45">
      <text x="1724.7114" xml:space="preserve" y="155.8452" clip-path="url(#clipPath2)" stroke="none">comm::Pipeline</text>
      <rect fill="none" x="1524.5" width="318" height="232.3828" y="139.9219" clip-path="url(#clipPath2)"/>
    </g>
    <g fill="rgb(210,210,210)" text-rendering="geometricPrecision" shape-rendering="geometricPrecision" transform="matrix(1,0,0,1,15,15) translate(4,4)" stroke="rgb(210,210,210)">
      <rect x="1539.5" width="284" height="176.9219" y="176.3828" clip-path="url(#clipPath3)" stroke="none"/>
    </g>
    <g fill="rgb(182,180,156)" text-rendering="geometricPrecision" shape-rendering="geometricPrecision" transform="matrix(1,0,0,1,15,15)" stroke="rgb(182,180,156)">
      <rect x="1539.5" width="284" height="176.9219" y="176.3828" clip-path="url(#clipPath2)" stroke="none"/>
      <rect x="1539.5" y="176.3828" clip-path="url(#clipPath2)" fill="rgb(183,182,158)" width="284" height="21.4609" stroke="none"/>
    </g>
    <g font-size="15px" stroke-linecap="butt" transform="matrix(1,0,0,1,15,15)" text-rendering="geometricPrecision" font-family="sans-serif" shape-rendering="geometricPrecision" stroke-miterlimit="1.45">
      <text x="1676.2827" xml:space="preserve" y="192.3062" clip-path="url(#clipPath2)" stroke="none">comm::URProducer</text>
      <rect fill="none" x="1539.5" width="284" height="176.9219" y="176.3828" clip-path="url(#clipPath2)"/>
    </g>
    <g fill="rgb(255,204,0)" text-rendering="geometricPrecision" shape-rendering="geometricPrecision" transform="matrix(1,0,0,1,15,15)" stroke="rgb(255,204,0)">
      <rect x="1571" width="221" height="26" y="311" clip-path="url(#clipPath2)" stroke="none"/>
      <rect x="1570" y="310" clip-path="url(#clipPath2)" fill="yellow" width="1" height="28" stroke="none"/>
      <rect x="1571" y="310" clip-path="url(#clipPath2)" fill="yellow" width="221" height="1" stroke="none"/>
      <rect x="1571" y="337" clip-path="url(#clipPath2)" fill="rgb(178,142,0)" width="222" height="1" stroke="none"/>
      <rect x="1792" y="310" clip-path="url(#clipPath2)" fill="rgb(178,142,0)" width="1" height="27" stroke="none"/>
    </g>
    <g font-size="13px" stroke-linecap="butt" transform="matrix(1,0,0,1,15,15)" text-rendering="geometricPrecision" font-family="sans-serif" shape-rendering="geometricPrecision" font-weight="bold" stroke-miterlimit="1.45">
      <text x="1581.5117" xml:space="preserve" y="327.3716" clip-path="url(#clipPath5)" stroke="none">rtde_interface::RTDEParser</text>
    </g>
    <g fill="rgb(255,204,0)" text-rendering="geometricPrecision" shape-rendering="geometricPrecision" transform="matrix(1,0,0,1,15,15)" stroke="rgb(255,204,0)">
      <rect x="1571" width="221" height="26" y="213" clip-path="url(#clipPath2)" stroke="none"/>
      <rect x="1570" y="212" clip-path="url(#clipPath2)" fill="yellow" width="1" height="28" stroke="none"/>
      <rect x="1571" y="212" clip-path="url(#clipPath2)" fill="yellow" width="221" height="1" stroke="none"/>
      <rect x="1571" y="239" clip-path="url(#clipPath2)" fill="rgb(178,142,0)" width="222" height="1" stroke="none"/>
      <rect x="1792" y="212" clip-path="url(#clipPath2)" fill="rgb(178,142,0)" width="1" height="27" stroke="none"/>
    </g>
    <g font-size="13px" stroke-linecap="butt" transform="matrix(1,0,0,1,15,15)" text-rendering="geometricPrecision" font-family="sans-serif" shape-rendering="geometricPrecision" font-weight="bold" stroke-miterlimit="1.45">
      <text x="1617.5918" xml:space="preserve" y="229.9106" clip-path="url(#clipPath6)" stroke="none">comm::URStream</text>
      <path fill="none" d="M1790.75 450.2761 L1790.75 391.8047 L1808.5 391.8047 L1808.5 256.3438 L1755.8334 256.3438 L1755.8334 248.874" clip-path="url(#clipPath2)"/>
      <path d="M1755.8334 240.874 L1750.8334 252.874 L1755.8334 249.874 L1760.8334 252.874 Z" stroke="none" clip-path="url(#clipPath2)"/>
      <path fill="none" d="M1681.5 240.8777 L1681.5 302.2708" clip-path="url(#clipPath2)"/>
      <path d="M1681.5 310.2708 L1686.5 298.2708 L1681.5 301.2708 L1676.5 298.2708 Z" stroke="none" clip-path="url(#clipPath2)"/>
    </g>
    <g transform="matrix(1,0,0,1,15,15)" fill-opacity="0.5176" fill="rgb(162,196,215)" text-rendering="geometricPrecision" shape-rendering="geometricPrecision" stroke="rgb(162,196,215)" stroke-opacity="0.5176">
      <rect x="1302.5" y="272.8438" clip-path="url(#clipPath2)" width="192" rx="4" ry="4" height="221.4609" stroke="none"/>
    </g>
    <g fill="rgb(153,204,255)" text-rendering="geometricPrecision" shape-rendering="geometricPrecision" transform="matrix(1,0,0,1,15,15)" stroke="rgb(153,204,255)">
      <rect x="1302.5" width="192" height="21.4609" y="272.8438" clip-path="url(#clipPath2)" stroke="none"/>
    </g>
    <g font-size="15px" stroke-linecap="butt" transform="matrix(1,0,0,1,15,15)" text-rendering="geometricPrecision" font-family="sans-serif" shape-rendering="geometricPrecision" stroke-miterlimit="1.45">
      <text x="1375.7007" xml:space="preserve" y="288.7671" clip-path="url(#clipPath2)" stroke="none">public interface</text>
    </g>
    <g stroke-linecap="round" transform="matrix(1,0,0,1,15,15)" stroke-dashoffset="2" fill="rgb(102,102,153)" text-rendering="geometricPrecision" shape-rendering="geometricPrecision" stroke-dasharray="0,4" stroke="rgb(102,102,153)" stroke-miterlimit="1.45">
      <rect x="1302.5" y="272.8438" clip-path="url(#clipPath2)" fill="none" width="192" rx="4" ry="4" height="221.4609"/>
    </g>
    <g fill="rgb(204,255,204)" text-rendering="geometricPrecision" shape-rendering="geometricPrecision" transform="matrix(1,0,0,1,15,15)" stroke="rgb(204,255,204)">
      <path d="M1333.7 449.3047 L1479.5 449.3047 L1463.3 479.3047 L1317.5 479.3047 Z" fill-rule="evenodd" clip-path="url(#clipPath2)" stroke="none"/>
    </g>
    <g text-rendering="geometricPrecision" stroke-miterlimit="1.45" shape-rendering="geometricPrecision" transform="matrix(1,0,0,1,15,15)" stroke-linecap="butt">
      <path fill="none" d="M1333.7 449.3047 L1479.5 449.3047 L1463.3 479.3047 L1317.5 479.3047 Z" fill-rule="evenodd" clip-path="url(#clipPath2)"/>
      <text x="1344.3945" xml:space="preserve" y="468.459" clip-path="url(#clipPath2)" font-family="sans-serif" stroke="none">getDataPackage()</text>
    </g>
    <g fill="rgb(204,255,204)" text-rendering="geometricPrecision" shape-rendering="geometricPrecision" transform="matrix(1,0,0,1,15,15)" stroke="rgb(204,255,204)">
      <path d="M1333.7 309.3047 L1479.5 309.3047 L1463.3 339.3047 L1317.5 339.3047 Z" fill-rule="evenodd" clip-path="url(#clipPath2)" stroke="none"/>
    </g>
    <g text-rendering="geometricPrecision" stroke-miterlimit="1.45" shape-rendering="geometricPrecision" transform="matrix(1,0,0,1,15,15)" stroke-linecap="butt">
      <path fill="none" d="M1333.7 309.3047 L1479.5 309.3047 L1463.3 339.3047 L1317.5 339.3047 Z" fill-rule="evenodd" clip-path="url(#clipPath2)"/>
      <text x="1365.3887" xml:space="preserve" y="328.459" clip-path="url(#clipPath2)" font-family="sans-serif" stroke="none">getWriter()</text>
      <path fill="none" d="M1681.5 338.3435 L1681.5 417.8047 L1439 417.8047 L1439 441.2739" clip-path="url(#clipPath2)"/>
      <path d="M1439 449.2739 L1444 437.2739 L1439 440.2739 L1434 437.2739 Z" clip-path="url(#clipPath2)" stroke="none"/>
      <path fill="none" stroke-dasharray="6,2" d="M1398.5 339.3047 L1398.5 433.8047 L1679.25 433.8047 L1679.25 442.2725" clip-path="url(#clipPath2)"/>
      <path stroke-dasharray="6,2" d="M1679.25 450.2725 L1684.25 438.2725 L1679.25 441.2725 L1674.25 438.2725 Z" clip-path="url(#clipPath2)" stroke="none"/>
    </g>
    <g transform="matrix(1,0,0,1,15,15)" fill-opacity="0.5176" fill="rgb(182,216,235)" text-rendering="geometricPrecision" shape-rendering="geometricPrecision" stroke="rgb(182,216,235)" stroke-opacity="0.5176">
      <rect x="474" y="175.3828" clip-path="url(#clipPath2)" width="768" rx="4" ry="4" height="178.9219" stroke="none"/>
    </g>
    <g fill="rgb(153,204,255)" text-rendering="geometricPrecision" shape-rendering="geometricPrecision" transform="matrix(1,0,0,1,15,15)" stroke="rgb(153,204,255)">
      <rect x="474" width="768" height="21.4609" y="175.3828" clip-path="url(#clipPath2)" stroke="none"/>
    </g>
    <g font-size="15px" stroke-linecap="butt" transform="matrix(1,0,0,1,15,15)" text-rendering="geometricPrecision" font-family="sans-serif" shape-rendering="geometricPrecision" stroke-miterlimit="1.45">
      <text x="1123.2007" xml:space="preserve" y="191.3062" clip-path="url(#clipPath2)" stroke="none">public interface</text>
    </g>
    <g stroke-linecap="round" transform="matrix(1,0,0,1,15,15)" stroke-dashoffset="2" fill="rgb(102,102,153)" text-rendering="geometricPrecision" shape-rendering="geometricPrecision" stroke-dasharray="0,4" stroke="rgb(102,102,153)" stroke-miterlimit="1.45">
      <rect x="474" y="175.3828" clip-path="url(#clipPath2)" fill="none" width="768" rx="4" ry="4" height="178.9219"/>
    </g>
    <g fill="rgb(204,255,204)" text-rendering="geometricPrecision" shape-rendering="geometricPrecision" transform="matrix(1,0,0,1,15,15)" stroke="rgb(204,255,204)">
      <path d="M889.2 309.3047 L1035 309.3047 L1018.8 339.3047 L872.9999 339.3047 Z" fill-rule="evenodd" clip-path="url(#clipPath2)" stroke="none"/>
    </g>
    <g text-rendering="geometricPrecision" stroke-miterlimit="1.45" shape-rendering="geometricPrecision" transform="matrix(1,0,0,1,15,15)" stroke-linecap="butt">
      <path fill="none" d="M889.2 309.3047 L1035 309.3047 L1018.8 339.3047 L872.9999 339.3047 Z" fill-rule="evenodd" clip-path="url(#clipPath2)"/>
      <text x="899.8945" xml:space="preserve" y="328.459" clip-path="url(#clipPath2)" font-family="sans-serif" stroke="none">getDataPackage()</text>
    </g>
    <g fill="rgb(204,255,204)" text-rendering="geometricPrecision" shape-rendering="geometricPrecision" transform="matrix(1,0,0,1,15,15)" stroke="rgb(204,255,204)">
      <path d="M697.2 211.8437 L842.9999 211.8437 L826.7999 241.8437 L680.9999 241.8437 Z" fill-rule="evenodd" clip-path="url(#clipPath2)" stroke="none"/>
    </g>
    <g text-rendering="geometricPrecision" stroke-miterlimit="1.45" shape-rendering="geometricPrecision" transform="matrix(1,0,0,1,15,15)" stroke-linecap="butt">
      <path fill="none" d="M697.2 211.8437 L842.9999 211.8437 L826.7999 241.8437 L680.9999 241.8437 Z" fill-rule="evenodd" clip-path="url(#clipPath2)"/>
      <text x="698.1328" xml:space="preserve" y="230.998" clip-path="url(#clipPath2)" font-family="sans-serif" stroke="none">writeJointCommand()</text>
    </g>
    <g fill="rgb(204,255,204)" text-rendering="geometricPrecision" shape-rendering="geometricPrecision" transform="matrix(1,0,0,1,15,15)" stroke="rgb(204,255,204)">
      <path d="M1081.2 211.8437 L1227 211.8437 L1210.8 241.8437 L1065 241.8437 Z" fill-rule="evenodd" clip-path="url(#clipPath2)" stroke="none"/>
    </g>
    <g text-rendering="geometricPrecision" stroke-miterlimit="1.45" shape-rendering="geometricPrecision" transform="matrix(1,0,0,1,15,15)" stroke-linecap="butt">
      <path fill="none" d="M1081.2 211.8437 L1227 211.8437 L1210.8 241.8437 L1065 241.8437 Z" fill-rule="evenodd" clip-path="url(#clipPath2)"/>
      <text x="1096.8545" xml:space="preserve" y="230.998" clip-path="url(#clipPath2)" font-family="sans-serif" stroke="none">writeKeepalive()</text>
    </g>
    <g fill="rgb(204,255,204)" text-rendering="geometricPrecision" shape-rendering="geometricPrecision" transform="matrix(1,0,0,1,15,15)" stroke="rgb(204,255,204)">
      <path d="M889.2 211.8437 L1035 211.8437 L1018.8 241.8437 L872.9999 241.8437 Z" fill-rule="evenodd" clip-path="url(#clipPath2)" stroke="none"/>
    </g>
    <g text-rendering="geometricPrecision" stroke-miterlimit="1.45" shape-rendering="geometricPrecision" transform="matrix(1,0,0,1,15,15)" stroke-linecap="butt">
      <path fill="none" d="M889.2 211.8437 L1035 211.8437 L1018.8 241.8437 L872.9999 241.8437 Z" fill-rule="evenodd" clip-path="url(#clipPath2)"/>
      <text x="904.6436" xml:space="preserve" y="230.998" clip-path="url(#clipPath2)" font-family="sans-serif" stroke="none">getRTDEWriter()</text>
    </g>
    <g fill="rgb(204,255,204)" text-rendering="geometricPrecision" shape-rendering="geometricPrecision" transform="matrix(1,0,0,1,15,15)" stroke="rgb(204,255,204)">
      <path d="M697.2 309.3047 L842.9999 309.3047 L826.7999 339.3047 L680.9999 339.3047 Z" fill-rule="evenodd" clip-path="url(#clipPath2)" stroke="none"/>
    </g>
    <g text-rendering="geometricPrecision" stroke-miterlimit="1.45" shape-rendering="geometricPrecision" transform="matrix(1,0,0,1,15,15)" stroke-linecap="butt">
      <path fill="none" d="M697.2 309.3047 L842.9999 309.3047 L826.7999 339.3047 L680.9999 339.3047 Z" fill-rule="evenodd" clip-path="url(#clipPath2)"/>
      <text x="725.4873" xml:space="preserve" y="328.459" clip-path="url(#clipPath2)" font-family="sans-serif" stroke="none">sendScript()</text>
    </g>
    <g fill="rgb(204,255,204)" text-rendering="geometricPrecision" shape-rendering="geometricPrecision" transform="matrix(1,0,0,1,15,15)" stroke="rgb(204,255,204)">
      <path d="M505.2 211.8437 L650.9999 211.8437 L634.7999 241.8437 L489 241.8437 Z" fill-rule="evenodd" clip-path="url(#clipPath2)" stroke="none"/>
    </g>
    <g text-rendering="geometricPrecision" stroke-miterlimit="1.45" shape-rendering="geometricPrecision" transform="matrix(1,0,0,1,15,15)" stroke-linecap="butt">
      <path fill="none" d="M505.2 211.8437 L650.9999 211.8437 L634.7999 241.8437 L489 241.8437 Z" fill-rule="evenodd" clip-path="url(#clipPath2)"/>
      <text x="507.665" xml:space="preserve" y="230.998" clip-path="url(#clipPath2)" font-family="sans-serif" stroke="none">sendRobotProgram()</text>
    </g>
    <g fill="rgb(204,255,204)" text-rendering="geometricPrecision" shape-rendering="geometricPrecision" transform="matrix(1,0,0,1,15,15)" stroke="rgb(204,255,204)">
      <path d="M505.2 309.3047 L650.9999 309.3047 L634.7999 339.3047 L489 339.3047 Z" fill-rule="evenodd" clip-path="url(#clipPath2)" stroke="none"/>
    </g>
    <g text-rendering="geometricPrecision" stroke-miterlimit="1.45" shape-rendering="geometricPrecision" transform="matrix(1,0,0,1,15,15)" stroke-linecap="butt">
      <path fill="none" d="M505.2 309.3047 L650.9999 309.3047 L634.7999 339.3047 L489 339.3047 Z" fill-rule="evenodd" clip-path="url(#clipPath2)"/>
      <text x="515.1064" xml:space="preserve" y="328.459" clip-path="url(#clipPath2)" font-family="sans-serif" stroke="none">checkCalibration()</text>
    </g>
    <g fill="rgb(255,204,0)" text-rendering="geometricPrecision" shape-rendering="geometricPrecision" transform="matrix(1,0,0,1,15,15)" stroke="rgb(255,204,0)">
      <rect x="651" width="221" height="26" y="451" clip-path="url(#clipPath2)" stroke="none"/>
      <rect x="650" y="450" clip-path="url(#clipPath2)" fill="yellow" width="1" height="28" stroke="none"/>
      <rect x="651" y="450" clip-path="url(#clipPath2)" fill="yellow" width="221" height="1" stroke="none"/>
      <rect x="651" y="477" clip-path="url(#clipPath2)" fill="rgb(178,142,0)" width="222" height="1" stroke="none"/>
      <rect x="872" y="450" clip-path="url(#clipPath2)" fill="rgb(178,142,0)" width="1" height="27" stroke="none"/>
    </g>
    <g font-size="13px" stroke-linecap="butt" transform="matrix(1,0,0,1,15,15)" text-rendering="geometricPrecision" font-family="sans-serif" shape-rendering="geometricPrecision" font-weight="bold" stroke-miterlimit="1.45">
      <text x="698.0918" xml:space="preserve" y="467.3716" clip-path="url(#clipPath7)" stroke="none">comm::URStream</text>
    </g>
    <g fill="rgb(255,204,0)" text-rendering="geometricPrecision" shape-rendering="geometricPrecision" transform="matrix(1,0,0,1,15,15)" stroke="rgb(255,204,0)">
      <rect x="232" width="221" height="26" y="311" clip-path="url(#clipPath2)" stroke="none"/>
      <rect x="231" y="310" clip-path="url(#clipPath2)" fill="yellow" width="1" height="28" stroke="none"/>
      <rect x="232" y="310" clip-path="url(#clipPath2)" fill="yellow" width="221" height="1" stroke="none"/>
      <rect x="232" y="337" clip-path="url(#clipPath2)" fill="rgb(178,142,0)" width="222" height="1" stroke="none"/>
      <rect x="453" y="310" clip-path="url(#clipPath2)" fill="rgb(178,142,0)" width="1" height="27" stroke="none"/>
    </g>
    <g font-size="13px" stroke-linecap="butt" transform="matrix(1,0,0,1,15,15)" text-rendering="geometricPrecision" font-family="sans-serif" shape-rendering="geometricPrecision" font-weight="bold" stroke-miterlimit="1.45">
      <text x="278.5918" xml:space="preserve" y="327.3716" clip-path="url(#clipPath8)" stroke="none">comm::URStream</text>
      <path fill="none" d="M1358 449.2737 L1358 385.8047 L954 385.8047 L954 347.3047" clip-path="url(#clipPath2)"/>
      <path d="M954 339.3047 L949 351.3047 L954 348.3047 L959 351.3047 Z" stroke="none" clip-path="url(#clipPath2)"/>
      <path fill="none" d="M762 241.8438 L762 273.3438 L1050.5 273.3438 L1050.5 433.2637" clip-path="url(#clipPath2)"/>
      <path d="M1050.5 441.2637 L1055.5 429.2637 L1050.5 432.2637 L1045.5 429.2637 Z" stroke="none" clip-path="url(#clipPath2)"/>
      <path fill="none" d="M1146 241.8438 L1146 369.8047 L1131.5 369.8047 L1131.5 433.2698" clip-path="url(#clipPath2)"/>
      <path d="M1131.5 441.2698 L1136.5 429.2698 L1131.5 432.2698 L1126.5 429.2698 Z" stroke="none" clip-path="url(#clipPath2)"/>
    </g>
    <g text-rendering="geometricPrecision" stroke-miterlimit="1.45" stroke-dasharray="6,2" shape-rendering="geometricPrecision" transform="matrix(1,0,0,1,15,15)" stroke-linecap="butt">
      <path fill="none" d="M954 241.8438 L954 257.3438 L1398.5 257.3438 L1398.5 301.2793" clip-path="url(#clipPath2)"/>
      <path d="M1398.5 309.2793 L1403.5 297.2793 L1398.5 300.2793 L1393.5 297.2793 Z" clip-path="url(#clipPath2)" stroke="none"/>
      <path fill="none" stroke-dasharray="none" d="M570 241.8438 L570 289.3438 L762 289.3438 L762 301.2657" clip-path="url(#clipPath2)"/>
      <path stroke-dasharray="none" d="M762 309.2657 L767 297.2657 L762 300.2657 L757 297.2657 Z" clip-path="url(#clipPath2)" stroke="none"/>
      <path fill="none" stroke-dasharray="none" d="M762 339.3047 L762 442.2776" clip-path="url(#clipPath2)"/>
      <path stroke-dasharray="none" d="M762 450.2776 L767 438.2776 L762 441.2776 L757 438.2776 Z" clip-path="url(#clipPath2)" stroke="none"/>
      <path fill="none" stroke-dasharray="none" d="M489.0938 324.3047 L462.0421 324.3047" clip-path="url(#clipPath2)"/>
      <path stroke-dasharray="none" d="M497.0938 324.3047 L485.0938 319.3047 L488.0938 324.3047 L485.0938 329.3047 Z" clip-path="url(#clipPath2)" stroke="none"/>
      <path stroke-dasharray="none" d="M454.0421 324.3047 L466.0421 329.3047 L463.0421 324.3047 L466.0421 319.3047 Z" clip-path="url(#clipPath2)" stroke="none"/>
    </g>
    <g fill="rgb(210,210,210)" text-rendering="geometricPrecision" shape-rendering="geometricPrecision" transform="matrix(1,0,0,1,15,15) translate(4,4)" stroke="rgb(210,210,210)">
      <rect x="39" width="754" height="333.3828" y="579.3047" clip-path="url(#clipPath3)" stroke="none"/>
    </g>
    <g fill="rgb(242,240,216)" text-rendering="geometricPrecision" shape-rendering="geometricPrecision" transform="matrix(1,0,0,1,15,15)" stroke="rgb(242,240,216)">
      <rect x="39" width="754" height="333.3828" y="579.3047" clip-path="url(#clipPath2)" stroke="none"/>
      <rect x="39" y="579.3047" clip-path="url(#clipPath2)" fill="rgb(183,182,158)" width="754" height="21.4609" stroke="none"/>
    </g>
    <g font-size="15px" stroke-linecap="butt" transform="matrix(1,0,0,1,15,15)" text-rendering="geometricPrecision" font-family="sans-serif" shape-rendering="geometricPrecision" stroke-miterlimit="1.45">
      <text x="746.8203" xml:space="preserve" y="595.228" clip-path="url(#clipPath2)" stroke="none">Robot</text>
      <rect fill="none" x="39" width="754" height="333.3828" y="579.3047" clip-path="url(#clipPath2)"/>
    </g>
    <g fill="rgb(255,204,0)" text-rendering="geometricPrecision" shape-rendering="geometricPrecision" transform="matrix(1,0,0,1,15,15)" stroke="rgb(255,204,0)">
      <rect x="55" width="207" height="44" y="653" clip-path="url(#clipPath2)" stroke="none"/>
      <rect x="54" y="652" clip-path="url(#clipPath2)" fill="yellow" width="1" height="46" stroke="none"/>
      <rect x="55" y="652" clip-path="url(#clipPath2)" fill="yellow" width="207" height="1" stroke="none"/>
      <rect x="55" y="697" clip-path="url(#clipPath2)" fill="rgb(178,142,0)" width="208" height="1" stroke="none"/>
      <rect x="262" y="652" clip-path="url(#clipPath2)" fill="rgb(178,142,0)" width="1" height="45" stroke="none"/>
    </g>
    <g font-size="13px" stroke-linecap="butt" transform="matrix(1,0,0,1,15,15)" text-rendering="geometricPrecision" font-family="sans-serif" shape-rendering="geometricPrecision" font-weight="bold" stroke-miterlimit="1.45">
      <text x="101.0347" xml:space="preserve" y="669.2935" clip-path="url(#clipPath9)" stroke="none">ExternalControl</text>
      <text x="68.4458" xml:space="preserve" y="684.4263" clip-path="url(#clipPath9)" stroke="none">Installation Contribution</text>
      <path fill="none" d="M158.5 644.201 L158.5 547.8047 L101 547.8047 L101 355.3047" clip-path="url(#clipPath2)"/>
      <path d="M158.5 652.201 L163.5 640.201 L158.5 643.201 L153.5 640.201 Z" stroke="none" clip-path="url(#clipPath2)"/>
      <path d="M101 347.3047 L96 359.3047 L101 356.3047 L106 359.3047 Z" stroke="none" clip-path="url(#clipPath2)"/>
    </g>
    <g fill="rgb(210,210,210)" text-rendering="geometricPrecision" shape-rendering="geometricPrecision" transform="matrix(1,0,0,1,15,15) translate(4,4)" stroke="rgb(210,210,210)">
      <rect x="94" width="228" height="79.4609" y="805.2266" clip-path="url(#clipPath3)" stroke="none"/>
    </g>
    <g fill="rgb(184,235,235)" text-rendering="geometricPrecision" shape-rendering="geometricPrecision" transform="matrix(1,0,0,1,15,15)" stroke="rgb(184,235,235)">
      <rect x="94" width="228" height="79.4609" y="805.2266" clip-path="url(#clipPath2)" stroke="none"/>
      <rect x="93.5769" y="805.2266" clip-path="url(#clipPath2)" fill="rgb(153,204,255)" width="228.8462" height="21.4609" stroke="none"/>
    </g>
    <g font-size="15px" stroke-linecap="butt" transform="matrix(1,0,0,1,15,15)" text-rendering="geometricPrecision" font-family="sans-serif" shape-rendering="geometricPrecision" stroke-miterlimit="1.45">
      <text x="95.5769" xml:space="preserve" y="821.1499" clip-path="url(#clipPath2)" stroke="none">ExternalControl ProgramNode</text>
      <rect fill="none" x="94" width="228" height="79.4609" y="805.2266" clip-path="url(#clipPath2)"/>
    </g>
    <g fill="rgb(255,204,0)" text-rendering="geometricPrecision" shape-rendering="geometricPrecision" transform="matrix(1,0,0,1,15,15)" stroke="rgb(255,204,0)">
      <rect x="110" width="196" height="26" y="842" clip-path="url(#clipPath2)" stroke="none"/>
      <rect x="109" y="841" clip-path="url(#clipPath2)" fill="yellow" width="1" height="28" stroke="none"/>
      <rect x="110" y="841" clip-path="url(#clipPath2)" fill="yellow" width="196" height="1" stroke="none"/>
      <rect x="110" y="868" clip-path="url(#clipPath2)" fill="rgb(178,142,0)" width="197" height="1" stroke="none"/>
      <rect x="306" y="841" clip-path="url(#clipPath2)" fill="rgb(178,142,0)" width="1" height="27" stroke="none"/>
    </g>
    <g font-size="13px" stroke-linecap="butt" transform="matrix(1,0,0,1,15,15)" text-rendering="geometricPrecision" font-family="sans-serif" shape-rendering="geometricPrecision" font-weight="bold" stroke-miterlimit="1.45">
      <text x="147.0308" xml:space="preserve" y="858.7544" clip-path="url(#clipPath10)" stroke="none">custom URScript</text>
      <path fill="none" d="M158.5 698.2616 L158.5 833.6525" clip-path="url(#clipPath2)"/>
      <path d="M158.5 841.6525 L163.5 829.6525 L158.5 832.6525 L153.5 829.6525 Z" stroke="none" clip-path="url(#clipPath2)"/>
      <path fill="none" d="M257.5 833.6416 L257.5 747.7266 L778 747.7266 L778 547.8047 L1091 547.8047 L1091 495.3047" clip-path="url(#clipPath2)"/>
      <path d="M257.5 841.6416 L262.5 829.6416 L257.5 832.6416 L252.5 829.6416 Z" stroke="none" clip-path="url(#clipPath2)"/>
      <path d="M1091 487.3047 L1086 499.3047 L1091 496.3047 L1096 499.3047 Z" stroke="none" clip-path="url(#clipPath2)"/>
    </g>
    <g fill="rgb(210,210,210)" text-rendering="geometricPrecision" shape-rendering="geometricPrecision" transform="matrix(1,0,0,1,15,15) translate(4,4)" stroke="rgb(210,210,210)">
      <rect x="550.5" width="192" height="97.4609" y="615.7656" clip-path="url(#clipPath3)" stroke="none"/>
    </g>
    <g fill="rgb(184,235,235)" text-rendering="geometricPrecision" shape-rendering="geometricPrecision" transform="matrix(1,0,0,1,15,15)" stroke="rgb(184,235,235)">
      <rect x="550.5" width="192" height="97.4609" y="615.7656" clip-path="url(#clipPath2)" stroke="none"/>
      <rect x="550.5" y="615.7656" clip-path="url(#clipPath2)" fill="rgb(153,204,255)" width="192" height="21.4609" stroke="none"/>
    </g>
    <g font-size="15px" stroke-linecap="butt" transform="matrix(1,0,0,1,15,15)" text-rendering="geometricPrecision" font-family="sans-serif" shape-rendering="geometricPrecision" stroke-miterlimit="1.45">
      <text x="699.8872" xml:space="preserve" y="631.689" clip-path="url(#clipPath2)" stroke="none">RTDE</text>
      <rect fill="none" x="550.5" width="192" height="97.4609" y="615.7656" clip-path="url(#clipPath2)"/>
    </g>
    <g fill="rgb(255,204,0)" text-rendering="geometricPrecision" shape-rendering="geometricPrecision" transform="matrix(1,0,0,1,15,15)" stroke="rgb(255,204,0)">
      <rect x="565.5" width="162" height="46" y="652.2266" clip-path="url(#clipPath2)" stroke="none"/>
    </g>
    <g text-rendering="geometricPrecision" stroke-miterlimit="1.45" shape-rendering="geometricPrecision" transform="matrix(1,0,0,1,15,15)" stroke-linecap="butt">
      <rect fill="none" x="565.5" width="162" height="46" y="652.2266" clip-path="url(#clipPath2)"/>
      <text x="605.0947" xml:space="preserve" y="679.3809" clip-path="url(#clipPath2)" font-family="sans-serif" stroke="none">Socket:30004</text>
      <path fill="none" d="M646.5 644.1834 L646.5 563.8047 L1287 563.8047 L1287 401.8047 L1554.5 401.8047 L1554.5 256.3438 L1607.1666 256.3438 L1607.1666 248.874" clip-path="url(#clipPath2)"/>
      <path d="M646.5 652.1834 L651.5 640.1834 L646.5 643.1834 L641.5 640.1834 Z" clip-path="url(#clipPath2)" stroke="none"/>
      <path d="M1607.1666 240.874 L1602.1666 252.874 L1607.1666 249.874 L1612.1666 252.874 Z" clip-path="url(#clipPath2)" stroke="none"/>
    </g>
    <g fill="rgb(210,210,210)" text-rendering="geometricPrecision" shape-rendering="geometricPrecision" transform="matrix(1,0,0,1,15,15) translate(4,4)" stroke="rgb(210,210,210)">
      <rect x="293" width="192" height="97.4609" y="615.7656" clip-path="url(#clipPath3)" stroke="none"/>
    </g>
    <g fill="rgb(184,235,235)" text-rendering="geometricPrecision" shape-rendering="geometricPrecision" transform="matrix(1,0,0,1,15,15)" stroke="rgb(184,235,235)">
      <rect x="293" width="192" height="97.4609" y="615.7656" clip-path="url(#clipPath2)" stroke="none"/>
      <rect x="293" y="615.7656" clip-path="url(#clipPath2)" fill="rgb(153,204,255)" width="192" height="21.4609" stroke="none"/>
    </g>
    <g font-size="15px" stroke-linecap="butt" transform="matrix(1,0,0,1,15,15)" text-rendering="geometricPrecision" font-family="sans-serif" shape-rendering="geometricPrecision" stroke-miterlimit="1.45">
      <text x="352.8486" xml:space="preserve" y="631.689" clip-path="url(#clipPath2)" stroke="none">Primary Interface</text>
      <rect fill="none" x="293" width="192" height="97.4609" y="615.7656" clip-path="url(#clipPath2)"/>
    </g>
    <g fill="rgb(255,204,0)" text-rendering="geometricPrecision" shape-rendering="geometricPrecision" transform="matrix(1,0,0,1,15,15)" stroke="rgb(255,204,0)">
      <rect x="308" width="162" height="46" y="652.2266" clip-path="url(#clipPath2)" stroke="none"/>
    </g>
    <g text-rendering="geometricPrecision" stroke-miterlimit="1.45" shape-rendering="geometricPrecision" transform="matrix(1,0,0,1,15,15)" stroke-linecap="butt">
      <rect fill="none" x="308" width="162" height="46" y="652.2266" clip-path="url(#clipPath2)"/>
      <text x="347.5947" xml:space="preserve" y="679.3809" clip-path="url(#clipPath2)" font-family="sans-serif" stroke="none">Socket:30001</text>
      <path fill="none" d="M342.5 346.3322 L342.5 563.8047 L389 563.8047 L389 644.1834" clip-path="url(#clipPath2)"/>
      <path d="M342.5 338.3322 L337.5 350.3322 L342.5 347.3322 L347.5 350.3322 Z" clip-path="url(#clipPath2)" stroke="none"/>
      <path d="M389 652.1834 L394 640.1834 L389 643.1834 L384 640.1834 Z" clip-path="url(#clipPath2)" stroke="none"/>
    </g>
    <g fill="rgb(210,210,210)" text-rendering="geometricPrecision" shape-rendering="geometricPrecision" transform="matrix(1,0,0,1,15,15) translate(4,4)" stroke="rgb(210,210,210)">
      <rect x="356" width="192" height="97.4609" y="796.2266" clip-path="url(#clipPath3)" stroke="none"/>
    </g>
    <g fill="rgb(184,235,235)" text-rendering="geometricPrecision" shape-rendering="geometricPrecision" transform="matrix(1,0,0,1,15,15)" stroke="rgb(184,235,235)">
      <rect x="356" width="192" height="97.4609" y="796.2266" clip-path="url(#clipPath2)" stroke="none"/>
      <rect x="356" y="796.2266" clip-path="url(#clipPath2)" fill="rgb(153,204,255)" width="192" height="21.4609" stroke="none"/>
    </g>
    <g font-size="15px" stroke-linecap="butt" transform="matrix(1,0,0,1,15,15)" text-rendering="geometricPrecision" font-family="sans-serif" shape-rendering="geometricPrecision" stroke-miterlimit="1.45">
      <text x="394.6377" xml:space="preserve" y="812.1499" clip-path="url(#clipPath2)" stroke="none">Secondary Interface</text>
      <rect fill="none" x="356" width="192" height="97.4609" y="796.2266" clip-path="url(#clipPath2)"/>
    </g>
    <g fill="rgb(255,204,0)" text-rendering="geometricPrecision" shape-rendering="geometricPrecision" transform="matrix(1,0,0,1,15,15)" stroke="rgb(255,204,0)">
      <rect x="371" width="162" height="46" y="832.6875" clip-path="url(#clipPath2)" stroke="none"/>
    </g>
    <g text-rendering="geometricPrecision" stroke-miterlimit="1.45" shape-rendering="geometricPrecision" transform="matrix(1,0,0,1,15,15)" stroke-linecap="butt">
      <rect fill="none" x="371" width="162" height="46" y="832.6875" clip-path="url(#clipPath2)"/>
      <text x="410.5947" xml:space="preserve" y="859.8418" clip-path="url(#clipPath2)" font-family="sans-serif" stroke="none">Socket:30002</text>
      <path fill="none" d="M762 478.3395 L762 763.7266 L452 763.7266 L452 824.6538" clip-path="url(#clipPath2)"/>
      <path d="M452 832.6538 L457 820.6538 L452 823.6538 L447 820.6538 Z" clip-path="url(#clipPath2)" stroke="none"/>
    </g>
    <g fill="rgb(210,210,210)" text-rendering="geometricPrecision" shape-rendering="geometricPrecision" transform="matrix(1,0,0,1,15,15) translate(4,4)" stroke="rgb(210,210,210)">
      <rect x="582" width="192" height="97.4609" y="796.2266" clip-path="url(#clipPath3)" stroke="none"/>
    </g>
    <g fill="rgb(184,235,235)" text-rendering="geometricPrecision" shape-rendering="geometricPrecision" transform="matrix(1,0,0,1,15,15)" stroke="rgb(184,235,235)">
      <rect x="582" width="192" height="97.4609" y="796.2266" clip-path="url(#clipPath2)" stroke="none"/>
      <rect x="582" y="796.2266" clip-path="url(#clipPath2)" fill="rgb(153,204,255)" width="192" height="21.4609" stroke="none"/>
    </g>
    <g font-size="15px" stroke-linecap="butt" transform="matrix(1,0,0,1,15,15)" text-rendering="geometricPrecision" font-family="sans-serif" shape-rendering="geometricPrecision" stroke-miterlimit="1.45">
      <text x="636.3994" xml:space="preserve" y="812.1499" clip-path="url(#clipPath2)" stroke="none">Dashboard Server</text>
      <rect fill="none" x="582" width="192" height="97.4609" y="796.2266" clip-path="url(#clipPath2)"/>
    </g>
    <g fill="rgb(255,204,0)" text-rendering="geometricPrecision" shape-rendering="geometricPrecision" transform="matrix(1,0,0,1,15,15)" stroke="rgb(255,204,0)">
      <rect x="597" width="162" height="46" y="832.6875" clip-path="url(#clipPath2)" stroke="none"/>
    </g>
    <g text-rendering="geometricPrecision" stroke-miterlimit="1.45" shape-rendering="geometricPrecision" transform="matrix(1,0,0,1,15,15)" stroke-linecap="butt">
      <rect fill="none" x="597" width="162" height="46" y="832.6875" clip-path="url(#clipPath2)"/>
      <text x="636.5947" xml:space="preserve" y="859.8418" clip-path="url(#clipPath2)" font-family="sans-serif" stroke="none">Socket:29999</text>
    </g>
    <g fill="rgb(210,210,210)" text-rendering="geometricPrecision" shape-rendering="geometricPrecision" transform="matrix(1,0,0,1,15,15) translate(4,4)" stroke="rgb(210,210,210)">
      <rect x="827" width="253" height="79.4609" y="681.7656" clip-path="url(#clipPath3)" stroke="none"/>
    </g>
    <g fill="rgb(242,240,216)" text-rendering="geometricPrecision" shape-rendering="geometricPrecision" transform="matrix(1,0,0,1,15,15)" stroke="rgb(242,240,216)">
      <rect x="827" width="253" height="79.4609" y="681.7656" clip-path="url(#clipPath2)" stroke="none"/>
      <rect x="827" y="681.7656" clip-path="url(#clipPath2)" fill="rgb(183,182,158)" width="253" height="21.4609" stroke="none"/>
    </g>
    <g font-size="15px" stroke-linecap="butt" transform="matrix(1,0,0,1,15,15)" text-rendering="geometricPrecision" font-family="sans-serif" shape-rendering="geometricPrecision" stroke-miterlimit="1.45">
      <text x="950.3901" xml:space="preserve" y="697.689" clip-path="url(#clipPath2)" stroke="none">Dashboard client</text>
      <rect fill="none" x="827" width="253" height="79.4609" y="681.7656" clip-path="url(#clipPath2)"/>
    </g>
    <g fill="rgb(255,204,0)" text-rendering="geometricPrecision" shape-rendering="geometricPrecision" transform="matrix(1,0,0,1,15,15)" stroke="rgb(255,204,0)">
      <rect x="843" width="221" height="26" y="719" clip-path="url(#clipPath2)" stroke="none"/>
      <rect x="842" y="718" clip-path="url(#clipPath2)" fill="yellow" width="1" height="28" stroke="none"/>
      <rect x="843" y="718" clip-path="url(#clipPath2)" fill="yellow" width="221" height="1" stroke="none"/>
      <rect x="843" y="745" clip-path="url(#clipPath2)" fill="rgb(178,142,0)" width="222" height="1" stroke="none"/>
      <rect x="1064" y="718" clip-path="url(#clipPath2)" fill="rgb(178,142,0)" width="1" height="27" stroke="none"/>
    </g>
    <g font-size="13px" stroke-linecap="butt" transform="matrix(1,0,0,1,15,15)" text-rendering="geometricPrecision" font-family="sans-serif" shape-rendering="geometricPrecision" font-weight="bold" stroke-miterlimit="1.45">
      <text x="892.4895" xml:space="preserve" y="735.2935" clip-path="url(#clipPath11)" stroke="none">DashboardClient</text>
    </g>
    <g fill="url(#linearGradient1)" text-rendering="geometricPrecision" shape-rendering="geometricPrecision" transform="matrix(1,0,0,1,15,15)" stroke="url(#linearGradient1)">
      <path d="M159.7 0 L250.9 0 L250.9 40.25 Q228.1 28.75 205.3 40.25 Q182.5 51.75 159.7 40.25 Z" stroke="none" clip-path="url(#clipPath2)"/>
    </g>
    <g text-rendering="geometricPrecision" stroke-miterlimit="1.45" shape-rendering="geometricPrecision" transform="matrix(1,0,0,1,15,15)" stroke-linecap="butt">
      <path fill="none" d="M159.7 0 L250.9 0 L250.9 40.25 Q228.1 28.75 205.3 40.25 Q182.5 51.75 159.7 40.25 Z" clip-path="url(#clipPath2)"/>
      <text x="168.2922" xml:space="preserve" y="27.1543" clip-path="url(#clipPath2)" font-family="sans-serif" stroke="none">URScript file</text>
    </g>
    <g text-rendering="geometricPrecision" stroke-miterlimit="1.45" shape-rendering="geometricPrecision" transform="matrix(1,0,0,1,15,15)" stroke-linecap="butt">
      <path fill="none" d="M678 824.6621 L678 780.7266 L953.5 780.7266 L953.5 754.2603" clip-path="url(#clipPath2)"/>
      <path d="M678 832.6621 L683 820.6621 L678 823.6621 L673 820.6621 Z" clip-path="url(#clipPath2)" stroke="none"/>
      <path d="M953.5 746.2603 L948.5 758.2603 L953.5 755.2603 L958.5 758.2603 Z" clip-path="url(#clipPath2)" stroke="none"/>
      <path fill="none" d="M182.5 46 L182.5 256.817" clip-path="url(#clipPath2)"/>
      <path d="M182.5 264.817 L187.5 252.817 L182.5 255.817 L177.5 252.817 Z" clip-path="url(#clipPath2)" stroke="none"/>
      <path fill="none" d="M228.1 34.5312 L228.1 61.5 L570 61.5 L570 203.807" clip-path="url(#clipPath2)"/>
      <path d="M570 211.807 L575 199.807 L570 202.807 L565 199.807 Z" clip-path="url(#clipPath2)" stroke="none"/>
    </g>
  </g>
</svg>
